<svg width="44" height="44" viewBox="0 0 44 44" fill="none" xmlns="http://www.w3.org/2000/svg">
<path d="M35.75 13.75C35.75 14.1147 35.6051 14.4644 35.3473 14.7223C35.0894 14.9801 34.7397 15.125 34.375 15.125H28.8492C28.8647 15.3519 28.875 15.5805 28.875 15.8125C28.8718 18.5466 27.7843 21.1677 25.851 23.101C23.9177 25.0343 21.2966 26.1218 18.5625 26.125H15.9311L28.4247 37.4825C28.5608 37.6032 28.6716 37.7498 28.7506 37.9137C28.8297 38.0776 28.8754 38.2555 28.8852 38.4372C28.895 38.6189 28.8686 38.8007 28.8076 38.9722C28.7466 39.1436 28.6521 39.3012 28.5298 39.4358C28.4074 39.5705 28.2595 39.6795 28.0947 39.7566C27.9299 39.8337 27.7514 39.8773 27.5696 39.8849C27.3878 39.8925 27.2063 39.8639 27.0356 39.8009C26.865 39.7378 26.7085 39.6415 26.5753 39.5175L11.4503 25.7675C11.2449 25.5808 11.1009 25.3364 11.037 25.0663C10.9732 24.7962 10.9926 24.5132 11.0926 24.2543C11.1927 23.9954 11.3687 23.7729 11.5976 23.616C11.8265 23.459 12.0975 23.375 12.375 23.375H18.5625C20.5675 23.3727 22.4897 22.5752 23.9075 21.1575C25.3252 19.7397 26.1227 17.8175 26.125 15.8125C26.125 15.5805 26.113 15.3519 26.0923 15.125H12.375C12.0103 15.125 11.6606 14.9801 11.4027 14.7223C11.1449 14.4644 11 14.1147 11 13.75C11 13.3853 11.1449 13.0356 11.4027 12.7777C11.6606 12.5199 12.0103 12.375 12.375 12.375H25.2948C24.6615 11.134 23.6977 10.0921 22.5097 9.36416C21.3217 8.63626 19.9558 8.25069 18.5625 8.25H12.375C12.0103 8.25 11.6606 8.10513 11.4027 7.84727C11.1449 7.58941 11 7.23967 11 6.875C11 6.51033 11.1449 6.16059 11.4027 5.90273C11.6606 5.64487 12.0103 5.5 12.375 5.5H34.375C34.7397 5.5 35.0894 5.64487 35.3473 5.90273C35.6051 6.16059 35.75 6.51033 35.75 6.875C35.75 7.23967 35.6051 7.58941 35.3473 7.84727C35.0894 8.10513 34.7397 8.25 34.375 8.25H25.5647C26.7912 9.38495 27.7242 10.8004 28.2837 12.375H34.375C34.7397 12.375 35.0894 12.5199 35.3473 12.7777C35.6051 13.0356 35.75 13.3853 35.75 13.75Z" fill="#709B08"/>
</svg>
