<svg width="44" height="44" viewBox="0 0 44 44" fill="none" xmlns="http://www.w3.org/2000/svg">
<path d="M36.7228 11.4022L29.8478 4.52719C29.72 4.39954 29.5683 4.29832 29.4014 4.22931C29.2345 4.1603 29.0556 4.12486 28.875 4.125H15.125C14.3957 4.125 13.6962 4.41473 13.1805 4.93046C12.6647 5.44618 12.375 6.14565 12.375 6.875V9.625H9.625C8.89565 9.625 8.19618 9.91473 7.68046 10.4305C7.16473 10.9462 6.875 11.6457 6.875 12.375V37.125C6.875 37.8543 7.16473 38.5538 7.68046 39.0695C8.19618 39.5853 8.89565 39.875 9.625 39.875H28.875C29.6043 39.875 30.3038 39.5853 30.8195 39.0695C31.3353 38.5538 31.625 37.8543 31.625 37.125V34.375H34.375C35.1043 34.375 35.8038 34.0853 36.3195 33.5695C36.8353 33.0538 37.125 32.3543 37.125 31.625V12.375C37.1251 12.1944 37.0897 12.0155 37.0207 11.8486C36.9517 11.6817 36.8505 11.53 36.7228 11.4022ZM28.875 37.125H9.625V12.375H22.8061L28.875 18.4439V32.9725C28.875 32.9828 28.875 32.9914 28.875 33C28.875 33.0086 28.875 33.0172 28.875 33.0275V37.125ZM34.375 31.625H31.625V17.875C31.6251 17.6944 31.5897 17.5155 31.5207 17.3486C31.4517 17.1817 31.3505 17.03 31.2228 16.9022L24.3478 10.0272C24.22 9.89954 24.0683 9.79832 23.9014 9.72931C23.7345 9.6603 23.5556 9.62486 23.375 9.625H15.125V6.875H28.3061L34.375 12.9439V31.625ZM24.75 26.125C24.75 26.4897 24.6051 26.8394 24.3473 27.0973C24.0894 27.3551 23.7397 27.5 23.375 27.5H15.125C14.7603 27.5 14.4106 27.3551 14.1527 27.0973C13.8949 26.8394 13.75 26.4897 13.75 26.125C13.75 25.7603 13.8949 25.4106 14.1527 25.1527C14.4106 24.8949 14.7603 24.75 15.125 24.75H23.375C23.7397 24.75 24.0894 24.8949 24.3473 25.1527C24.6051 25.4106 24.75 25.7603 24.75 26.125ZM24.75 31.625C24.75 31.9897 24.6051 32.3394 24.3473 32.5973C24.0894 32.8551 23.7397 33 23.375 33H15.125C14.7603 33 14.4106 32.8551 14.1527 32.5973C13.8949 32.3394 13.75 31.9897 13.75 31.625C13.75 31.2603 13.8949 30.9106 14.1527 30.6527C14.4106 30.3949 14.7603 30.25 15.125 30.25H23.375C23.7397 30.25 24.0894 30.3949 24.3473 30.6527C24.6051 30.9106 24.75 31.2603 24.75 31.625Z" fill="#709B08"/>
</svg>
