<svg width="197" height="84" viewBox="0 0 197 84" fill="none" xmlns="http://www.w3.org/2000/svg">
<path d="M93.1043 58.3017L84 33.3772H91.4311L97.5334 51.319L103.537 33.3772H110.821L101.717 58.3017H93.1043Z" fill="#1E1E1E"/>
<path d="M115.151 30.7101C112.887 30.7101 111.116 29.0614 111.116 26.8793C111.116 24.6487 112.887 23 115.151 23C117.415 23 119.187 24.6487 119.187 26.8793C119.187 29.0614 117.415 30.7101 115.151 30.7101ZM111.657 58.3017V33.3772H118.645V58.3017H111.657Z" fill="#1E1E1E"/>
<path d="M120.774 50.0097H127.369C127.615 52.1918 129.534 53.695 132.93 53.695C135.833 53.695 137.605 52.7737 137.605 51.028C137.605 48.9914 135.882 48.8459 131.798 48.3125C125.892 47.6336 121.315 46.3244 121.315 41.1843C121.315 36.2381 125.695 32.9892 132.191 33.0377C138.983 33.0377 143.658 35.9957 144.002 41.0873H137.359C137.162 39.0991 135.243 37.8869 132.437 37.8869C129.731 37.8869 127.959 38.8567 127.959 40.4569C127.959 42.3481 130.124 42.542 133.766 42.9784C139.573 43.5603 144.396 44.8696 144.396 50.4946C144.396 55.4407 139.672 58.5927 132.88 58.5927C125.843 58.5927 121.069 55.3438 120.774 50.0097Z" fill="#1E1E1E"/>
<path d="M159.075 58.5927C150.66 58.5927 145.591 53.5981 145.591 45.8879C145.591 38.1293 150.758 33.0862 158.583 33.0862C166.161 33.0862 171.28 37.7414 171.378 45.0636C171.378 45.7909 171.329 46.6153 171.181 47.3912H152.825V47.7306C152.972 51.2705 155.285 53.4041 158.78 53.4041C161.585 53.4041 163.553 52.1918 164.144 49.8642H170.984C170.197 54.7134 165.817 58.5927 159.075 58.5927ZM152.972 42.93H164.39C163.898 39.875 161.782 38.1778 158.632 38.1778C155.63 38.1778 153.366 39.972 152.972 42.93Z" fill="#1E1E1E"/>
<path d="M179.776 58.4472L170.032 33.3772H177.413L183.565 51.125L189.569 33.3772H197L185.78 61.8416C184.205 65.9634 182.925 68 178.988 68H172.246V62.2295H176.085C177.856 62.2295 178.447 61.7931 179.136 60.0959L179.776 58.4472Z" fill="#1E1E1E"/>
<path d="M35.9814 51.24L88.1119 0L38.5312 84L35.9814 51.24Z" fill="#6C032E"/>
<path d="M35.9814 51.24L88.1119 0L0 33.88L35.9814 51.24Z" fill="#CE0758"/>
<path d="M35.9814 51.24L38.5312 84L0 33.88L35.9814 51.24Z" fill="#9D0543"/>
</svg>
