<svg width="1440" height="112" viewBox="0 0 1440 112" fill="none" xmlns="http://www.w3.org/2000/svg">
<g opacity="0.16">
<path d="M65.7781 68.32L135 0L69.164 112L65.7781 68.32Z" fill="#6C032E"/>
<path d="M65.7781 68.32L135 0L18 45.1733L65.7781 68.32Z" fill="#CE0758"/>
<path d="M65.7781 68.32L69.164 112L18 45.1733L65.7781 68.32Z" fill="#9D0543"/>
<path d="M182.778 68.32L252 0L186.164 112L182.778 68.32Z" fill="#6C032E"/>
<path d="M182.778 68.32L252 0L135 45.1733L182.778 68.32Z" fill="#CE0758"/>
<path d="M182.778 68.32L186.164 112L135 45.1733L182.778 68.32Z" fill="#9D0543"/>
<path d="M299.778 68.32L369 0L303.164 112L299.778 68.32Z" fill="#6C032E"/>
<path d="M299.778 68.32L369 0L252 45.1733L299.778 68.32Z" fill="#CE0758"/>
<path d="M299.778 68.32L303.164 112L252 45.1733L299.778 68.32Z" fill="#9D0543"/>
<path d="M416.778 68.32L486 0L420.164 112L416.778 68.32Z" fill="#6C032E"/>
<path d="M416.778 68.32L486 0L369 45.1733L416.778 68.32Z" fill="#CE0758"/>
<path d="M416.778 68.32L420.164 112L369 45.1733L416.778 68.32Z" fill="#9D0543"/>
<path d="M533.778 68.32L603 0L537.164 112L533.778 68.32Z" fill="#6C032E"/>
<path d="M533.778 68.32L603 0L486 45.1733L533.778 68.32Z" fill="#CE0758"/>
<path d="M533.778 68.32L537.164 112L486 45.1733L533.778 68.32Z" fill="#9D0543"/>
<path d="M650.778 68.32L720 0L654.164 112L650.778 68.32Z" fill="#6C032E"/>
<path d="M650.778 68.32L720 0L603 45.1733L650.778 68.32Z" fill="#CE0758"/>
<path d="M650.778 68.32L654.164 112L603 45.1733L650.778 68.32Z" fill="#9D0543"/>
<path d="M767.778 68.32L837 0L771.164 112L767.778 68.32Z" fill="#6C032E"/>
<path d="M767.778 68.32L837 0L720 45.1733L767.778 68.32Z" fill="#CE0758"/>
<path d="M767.778 68.32L771.164 112L720 45.1733L767.778 68.32Z" fill="#9D0543"/>
<path d="M884.778 68.32L954 0L888.164 112L884.778 68.32Z" fill="#6C032E"/>
<path d="M884.778 68.32L954 0L837 45.1733L884.778 68.32Z" fill="#CE0758"/>
<path d="M884.778 68.32L888.164 112L837 45.1733L884.778 68.32Z" fill="#9D0543"/>
<path d="M1001.78 68.32L1071 0L1005.16 112L1001.78 68.32Z" fill="#6C032E"/>
<path d="M1001.78 68.32L1071 0L954 45.1733L1001.78 68.32Z" fill="#CE0758"/>
<path d="M1001.78 68.32L1005.16 112L954 45.1733L1001.78 68.32Z" fill="#9D0543"/>
<path d="M1118.78 68.32L1188 0L1122.16 112L1118.78 68.32Z" fill="#6C032E"/>
<path d="M1118.78 68.32L1188 0L1071 45.1733L1118.78 68.32Z" fill="#CE0758"/>
<path d="M1118.78 68.32L1122.16 112L1071 45.1733L1118.78 68.32Z" fill="#9D0543"/>
<path d="M1235.78 68.32L1305 0L1239.16 112L1235.78 68.32Z" fill="#6C032E"/>
<path d="M1235.78 68.32L1305 0L1188 45.1733L1235.78 68.32Z" fill="#CE0758"/>
<path d="M1235.78 68.32L1239.16 112L1188 45.1733L1235.78 68.32Z" fill="#9D0543"/>
<path d="M1352.78 68.32L1422 0L1356.16 112L1352.78 68.32Z" fill="#6C032E"/>
<path d="M1352.78 68.32L1422 0L1305 45.1733L1352.78 68.32Z" fill="#CE0758"/>
<path d="M1352.78 68.32L1356.16 112L1305 45.1733L1352.78 68.32Z" fill="#9D0543"/>
</g>
</svg>
