<svg width="1440" height="381" viewBox="0 0 1440 381" fill="none" xmlns="http://www.w3.org/2000/svg">
<g clip-path="url(#clip0_2690_34172)">
<path d="M247.158 177.024C142.685 81.0792 38.8558 137.047 0 177.024V162.532C34.9117 122.389 133.22 66.1878 247.158 162.532C361.096 258.877 463.494 200.011 500.45 158.535C541.643 120.223 646.817 66.5875 737.967 158.535C829.117 250.482 931.954 196.846 971.978 158.535C1007.47 118.891 1102.04 63.3894 1196.35 158.535C1290.65 253.68 1398.08 198.178 1440 158.535V177.024C1399.68 213.503 1294.51 264.574 1196.35 177.024C1098.19 89.4744 1005.87 140.545 971.978 177.024C931.808 212.004 828.767 260.976 737.967 177.024C647.167 93.0723 541.789 142.044 500.45 177.024C459.55 217.001 351.63 272.969 247.158 177.024Z" fill="#F01D74"/>
<path d="M247.158 177.024C142.685 81.0792 38.8558 137.047 0 177.024V162.532C34.9117 122.389 133.22 66.1878 247.158 162.532C361.096 258.877 463.494 200.011 500.45 158.535C541.643 120.223 646.817 66.5875 737.967 158.535C829.117 250.482 931.954 196.846 971.978 158.535C1007.47 118.891 1102.04 63.3894 1196.35 158.535C1290.65 253.68 1398.08 198.178 1440 158.535V177.024C1399.68 213.503 1294.51 264.574 1196.35 177.024C1098.19 89.4744 1005.87 140.545 971.978 177.024C931.808 212.004 828.767 260.976 737.967 177.024C647.167 93.0723 541.789 142.044 500.45 177.024C459.55 217.001 351.63 272.969 247.158 177.024Z" fill="#F01D74"/>
<path d="M247.158 224.024C142.685 128.079 38.8558 184.047 0 224.024V209.532C34.9117 169.389 133.22 113.188 247.158 209.532C361.096 305.877 463.494 247.011 500.45 205.535C541.643 167.223 646.817 113.588 737.967 205.535C829.117 297.482 931.954 243.846 971.978 205.535C1007.47 165.891 1102.04 110.389 1196.35 205.535C1290.65 300.68 1398.08 245.178 1440 205.535V224.024C1399.68 260.503 1294.51 311.574 1196.35 224.024C1098.19 136.474 1005.87 187.545 971.978 224.024C931.808 259.004 828.767 307.976 737.967 224.024C647.167 140.072 541.789 189.044 500.45 224.024C459.55 264.001 351.63 319.969 247.158 224.024Z" fill="#F01D74"/>
<path d="M247.158 224.024C142.685 128.079 38.8558 184.047 0 224.024V209.532C34.9117 169.389 133.22 113.188 247.158 209.532C361.096 305.877 463.494 247.011 500.45 205.535C541.643 167.223 646.817 113.588 737.967 205.535C829.117 297.482 931.954 243.846 971.978 205.535C1007.47 165.891 1102.04 110.389 1196.35 205.535C1290.65 300.68 1398.08 245.178 1440 205.535V224.024C1399.68 260.503 1294.51 311.574 1196.35 224.024C1098.19 136.474 1005.87 187.545 971.978 224.024C931.808 259.004 828.767 307.976 737.967 224.024C647.167 140.072 541.789 189.044 500.45 224.024C459.55 264.001 351.63 319.969 247.158 224.024Z" fill="#F01D74"/>
<path d="M247.158 271.024C142.685 175.079 38.8558 231.047 0 271.024V256.532C34.9117 216.389 133.22 160.188 247.158 256.532C361.096 352.877 463.494 294.011 500.45 252.535C541.643 214.223 646.817 160.588 737.967 252.535C829.117 344.482 931.954 290.846 971.978 252.535C1007.47 212.891 1102.04 157.389 1196.35 252.535C1290.65 347.68 1398.08 292.178 1440 252.535V271.024C1399.68 307.503 1294.51 358.574 1196.35 271.024C1098.19 183.474 1005.87 234.545 971.978 271.024C931.808 306.004 828.767 354.976 737.967 271.024C647.167 187.072 541.789 236.044 500.45 271.024C459.55 311.001 351.63 366.969 247.158 271.024Z" fill="#F01D74"/>
<path d="M247.158 271.024C142.685 175.079 38.8558 231.047 0 271.024V256.532C34.9117 216.389 133.22 160.188 247.158 256.532C361.096 352.877 463.494 294.011 500.45 252.535C541.643 214.223 646.817 160.588 737.967 252.535C829.117 344.482 931.954 290.846 971.978 252.535C1007.47 212.891 1102.04 157.389 1196.35 252.535C1290.65 347.68 1398.08 292.178 1440 252.535V271.024C1399.68 307.503 1294.51 358.574 1196.35 271.024C1098.19 183.474 1005.87 234.545 971.978 271.024C931.808 306.004 828.767 354.976 737.967 271.024C647.167 187.072 541.789 236.044 500.45 271.024C459.55 311.001 351.63 366.969 247.158 271.024Z" fill="#F01D74"/>
<path d="M247.158 318.024C142.685 222.079 38.8558 278.047 0 318.024V303.532C34.9117 263.389 133.22 207.188 247.158 303.532C361.096 399.877 463.494 341.011 500.45 299.535C541.643 261.223 646.817 207.588 737.967 299.535C829.117 391.482 931.954 337.846 971.978 299.535C1007.47 259.891 1102.04 204.389 1196.35 299.535C1290.65 394.68 1398.08 339.178 1440 299.535V318.024C1399.68 354.503 1294.51 405.574 1196.35 318.024C1098.19 230.474 1005.87 281.545 971.978 318.024C931.808 353.004 828.767 401.976 737.967 318.024C647.167 234.072 541.789 283.044 500.45 318.024C459.55 358.001 351.63 413.969 247.158 318.024Z" fill="#F01D74"/>
<path d="M247.158 318.024C142.685 222.079 38.8558 278.047 0 318.024V303.532C34.9117 263.389 133.22 207.188 247.158 303.532C361.096 399.877 463.494 341.011 500.45 299.535C541.643 261.223 646.817 207.588 737.967 299.535C829.117 391.482 931.954 337.846 971.978 299.535C1007.47 259.891 1102.04 204.389 1196.35 299.535C1290.65 394.68 1398.08 339.178 1440 299.535V318.024C1399.68 354.503 1294.51 405.574 1196.35 318.024C1098.19 230.474 1005.87 281.545 971.978 318.024C931.808 353.004 828.767 401.976 737.967 318.024C647.167 234.072 541.789 283.044 500.45 318.024C459.55 358.001 351.63 413.969 247.158 318.024Z" fill="#F01D74"/>
<path d="M247.158 365.024C142.685 269.079 38.8558 325.047 0 365.024V350.532C34.9117 310.389 133.22 254.188 247.158 350.532C361.096 446.877 463.494 388.011 500.45 346.535C541.643 308.223 646.817 254.588 737.967 346.535C829.117 438.482 931.954 384.846 971.978 346.535C1007.47 306.891 1102.04 251.389 1196.35 346.535C1290.65 441.68 1398.08 386.178 1440 346.535V365.024C1399.68 401.503 1294.51 452.574 1196.35 365.024C1098.19 277.474 1005.87 328.545 971.978 365.024C931.808 400.004 828.767 448.976 737.967 365.024C647.167 281.072 541.789 330.044 500.45 365.024C459.55 405.001 351.63 460.969 247.158 365.024Z" fill="#F01D74"/>
<path d="M247.158 365.024C142.685 269.079 38.8558 325.047 0 365.024V350.532C34.9117 310.389 133.22 254.188 247.158 350.532C361.096 446.877 463.494 388.011 500.45 346.535C541.643 308.223 646.817 254.588 737.967 346.535C829.117 438.482 931.954 384.846 971.978 346.535C1007.47 306.891 1102.04 251.389 1196.35 346.535C1290.65 441.68 1398.08 386.178 1440 346.535V365.024C1399.68 401.503 1294.51 452.574 1196.35 365.024C1098.19 277.474 1005.87 328.545 971.978 365.024C931.808 400.004 828.767 448.976 737.967 365.024C647.167 281.072 541.789 330.044 500.45 365.024C459.55 405.001 351.63 460.969 247.158 365.024Z" fill="#F01D74"/>
<path d="M247.158 412.024C142.685 316.079 38.8558 372.047 0 412.024V397.532C34.9117 357.389 133.22 301.188 247.158 397.532C361.096 493.877 463.494 435.011 500.45 393.535C541.643 355.223 646.817 301.588 737.967 393.535C829.117 485.482 931.954 431.846 971.978 393.535C1007.47 353.891 1102.04 298.389 1196.35 393.535C1290.65 488.68 1398.08 433.178 1440 393.535V412.024C1399.68 448.503 1294.51 499.574 1196.35 412.024C1098.19 324.474 1005.87 375.545 971.978 412.024C931.808 447.004 828.767 495.976 737.967 412.024C647.167 328.072 541.789 377.044 500.45 412.024C459.55 452.001 351.63 507.969 247.158 412.024Z" fill="#F01D74"/>
<path d="M247.158 412.024C142.685 316.079 38.8558 372.047 0 412.024V397.532C34.9117 357.389 133.22 301.188 247.158 397.532C361.096 493.877 463.494 435.011 500.45 393.535C541.643 355.223 646.817 301.588 737.967 393.535C829.117 485.482 931.954 431.846 971.978 393.535C1007.47 353.891 1102.04 298.389 1196.35 393.535C1290.65 488.68 1398.08 433.178 1440 393.535V412.024C1399.68 448.503 1294.51 499.574 1196.35 412.024C1098.19 324.474 1005.87 375.545 971.978 412.024C931.808 447.004 828.767 495.976 737.967 412.024C647.167 328.072 541.789 377.044 500.45 412.024C459.55 452.001 351.63 507.969 247.158 412.024Z" fill="#F01D74"/>
</g>
<defs>
<clipPath id="clip0_2690_34172">
<rect width="1440" height="275" fill="white" transform="translate(0 106)"/>
</clipPath>
</defs>
</svg>
