<svg width="226" height="97" viewBox="0 0 226 97" fill="none" xmlns="http://www.w3.org/2000/svg">
<path d="M106.474 66.7931L96 37.9914H104.549L111.569 58.7241L118.477 37.9914H126.856L116.382 66.7931H106.474Z" fill="#F1F1F1"/>
<path d="M131.838 34.9095C129.233 34.9095 127.195 33.0043 127.195 30.4828C127.195 27.9052 129.233 26 131.838 26C134.442 26 136.48 27.9052 136.48 30.4828C136.48 33.0043 134.442 34.9095 131.838 34.9095ZM127.818 66.7931V37.9914H135.857V66.7931H127.818Z" fill="#F1F1F1"/>
<path d="M138.306 57.2112H145.893C146.176 59.7328 148.384 61.4698 152.291 61.4698C155.631 61.4698 157.669 60.4052 157.669 58.3879C157.669 56.0345 155.688 55.8664 150.988 55.25C144.195 54.4655 138.929 52.9526 138.929 47.0129C138.929 41.2974 143.968 37.5431 151.441 37.5991C159.254 37.5991 164.633 41.0172 165.029 46.9009H157.386C157.16 44.6034 154.952 43.2026 151.724 43.2026C148.611 43.2026 146.572 44.3233 146.572 46.1724C146.572 48.3578 149.063 48.5819 153.253 49.0862C159.934 49.7586 165.482 51.2716 165.482 57.7716C165.482 63.4871 160.047 67.1293 152.234 67.1293C144.138 67.1293 138.646 63.375 138.306 57.2112Z" fill="#F1F1F1"/>
<path d="M182.369 67.1293C172.688 67.1293 166.856 61.3578 166.856 52.4483C166.856 43.4828 172.801 37.6552 181.803 37.6552C190.522 37.6552 196.41 43.0345 196.523 51.4957C196.523 52.3362 196.467 53.2888 196.297 54.1853H175.179V54.5776C175.349 58.6681 178.01 61.1336 182.03 61.1336C185.257 61.1336 187.521 59.7328 188.201 57.0431H196.07C195.165 62.6466 190.126 67.1293 182.369 67.1293ZM175.349 49.0302H188.484C187.918 45.5 185.483 43.5388 181.86 43.5388C178.406 43.5388 175.802 45.6121 175.349 49.0302Z" fill="#F1F1F1"/>
<path d="M206.184 66.9612L194.974 37.9914H203.467L210.544 58.5L217.451 37.9914H226L213.092 70.8836C211.28 75.6466 209.808 78 205.278 78H197.522V71.3319H201.938C203.976 71.3319 204.656 70.8276 205.448 68.8664L206.184 66.9612Z" fill="#F1F1F1"/>
<path d="M41.3236 58.8477L101.194 0L44.252 96.4716L41.3236 58.8477Z" fill="#6C032E"/>
<path d="M41.3236 58.8477L101.194 0L0 38.9102L41.3236 58.8477Z" fill="#CE0758"/>
<path d="M41.3236 58.8477L44.252 96.4716L0 38.9102L41.3236 58.8477Z" fill="#9D0543"/>
</svg>
