<svg width="1440" height="497" viewBox="0 0 1440 497" fill="none" xmlns="http://www.w3.org/2000/svg">
<g clip-path="url(#clip0_2690_34184)">
<g opacity="0.56">
<path d="M247.158 -33.0239C142.685 62.9208 38.8558 6.95304 0 -33.0239V-18.5323C34.9117 21.6113 133.22 77.8122 247.158 -18.5323C361.096 -114.877 463.494 -56.0107 500.45 -14.5346C541.643 23.7767 646.817 77.4125 737.967 -14.5346C829.117 -106.482 931.954 -52.8459 971.978 -14.5346C1007.47 25.1092 1102.04 80.6106 1196.35 -14.5346C1290.65 -109.68 1398.08 -54.1784 1440 -14.5346V-33.0239C1399.68 -69.5029 1294.51 -120.574 1196.35 -33.0239C1098.19 54.5256 1005.87 3.45505 971.978 -33.0239C931.808 -68.0038 828.767 -116.976 737.967 -33.0239C647.167 50.9277 541.789 1.95591 500.45 -33.0239C459.55 -73.0009 351.63 -128.969 247.158 -33.0239Z" fill="#F01D74"/>
<path d="M247.158 -33.0239C142.685 62.9208 38.8558 6.95304 0 -33.0239V-18.5323C34.9117 21.6113 133.22 77.8122 247.158 -18.5323C361.096 -114.877 463.494 -56.0107 500.45 -14.5346C541.643 23.7767 646.817 77.4125 737.967 -14.5346C829.117 -106.482 931.954 -52.8459 971.978 -14.5346C1007.47 25.1092 1102.04 80.6106 1196.35 -14.5346C1290.65 -109.68 1398.08 -54.1784 1440 -14.5346V-33.0239C1399.68 -69.5029 1294.51 -120.574 1196.35 -33.0239C1098.19 54.5256 1005.87 3.45505 971.978 -33.0239C931.808 -68.0038 828.767 -116.976 737.967 -33.0239C647.167 50.9277 541.789 1.95591 500.45 -33.0239C459.55 -73.0009 351.63 -128.969 247.158 -33.0239Z" fill="#F01D74"/>
</g>
<g opacity="0.38">
<path d="M247.158 13.9761C142.685 109.921 38.8558 53.953 0 13.9761V28.4677C34.9117 68.6113 133.22 124.812 247.158 28.4677C361.096 -67.8768 463.494 -9.0107 500.45 32.4654C541.643 70.7767 646.817 124.412 737.967 32.4654C829.117 -59.4816 931.954 -5.84586 971.978 32.4654C1007.47 72.1092 1102.04 127.611 1196.35 32.4654C1290.65 -62.6798 1398.08 -7.17843 1440 32.4654V13.9761C1399.68 -22.5029 1294.51 -73.5735 1196.35 13.9761C1098.19 101.526 1005.87 50.4551 971.978 13.9761C931.808 -21.0038 828.767 -69.9756 737.967 13.9761C647.167 97.9277 541.789 48.9559 500.45 13.9761C459.55 -26.0009 351.63 -81.9687 247.158 13.9761Z" fill="#F01D74"/>
<path d="M247.158 13.9761C142.685 109.921 38.8558 53.953 0 13.9761V28.4677C34.9117 68.6113 133.22 124.812 247.158 28.4677C361.096 -67.8768 463.494 -9.0107 500.45 32.4654C541.643 70.7767 646.817 124.412 737.967 32.4654C829.117 -59.4816 931.954 -5.84586 971.978 32.4654C1007.47 72.1092 1102.04 127.611 1196.35 32.4654C1290.65 -62.6798 1398.08 -7.17843 1440 32.4654V13.9761C1399.68 -22.5029 1294.51 -73.5735 1196.35 13.9761C1098.19 101.526 1005.87 50.4551 971.978 13.9761C931.808 -21.0038 828.767 -69.9756 737.967 13.9761C647.167 97.9277 541.789 48.9559 500.45 13.9761C459.55 -26.0009 351.63 -81.9687 247.158 13.9761Z" fill="#F01D74"/>
</g>
<g opacity="0.21">
<path d="M247.158 60.9761C142.685 156.921 38.8558 100.953 0 60.9761V75.4677C34.9117 115.611 133.22 171.812 247.158 75.4677C361.096 -20.8768 463.494 37.9893 500.45 79.4654C541.643 117.777 646.817 171.412 737.967 79.4654C829.117 -12.4816 931.954 41.1541 971.978 79.4654C1007.47 119.109 1102.04 174.611 1196.35 79.4654C1290.65 -15.6798 1398.08 39.8216 1440 79.4654V60.9761C1399.68 24.4971 1294.51 -26.5735 1196.35 60.9761C1098.19 148.526 1005.87 97.4551 971.978 60.9761C931.808 25.9962 828.767 -22.9756 737.967 60.9761C647.167 144.928 541.789 95.9559 500.45 60.9761C459.55 20.9991 351.63 -34.9687 247.158 60.9761Z" fill="#F01D74"/>
<path d="M247.158 60.9761C142.685 156.921 38.8558 100.953 0 60.9761V75.4677C34.9117 115.611 133.22 171.812 247.158 75.4677C361.096 -20.8768 463.494 37.9893 500.45 79.4654C541.643 117.777 646.817 171.412 737.967 79.4654C829.117 -12.4816 931.954 41.1541 971.978 79.4654C1007.47 119.109 1102.04 174.611 1196.35 79.4654C1290.65 -15.6798 1398.08 39.8216 1440 79.4654V60.9761C1399.68 24.4971 1294.51 -26.5735 1196.35 60.9761C1098.19 148.526 1005.87 97.4551 971.978 60.9761C931.808 25.9962 828.767 -22.9756 737.967 60.9761C647.167 144.928 541.789 95.9559 500.45 60.9761C459.55 20.9991 351.63 -34.9687 247.158 60.9761Z" fill="#F01D74"/>
</g>
<g opacity="0.13">
<path d="M247.158 107.976C142.685 203.921 38.8558 147.953 0 107.976V122.468C34.9117 162.611 133.22 218.812 247.158 122.468C361.096 26.1232 463.494 84.9893 500.45 126.465C541.643 164.777 646.817 218.412 737.967 126.465C829.117 34.5184 931.954 88.1541 971.978 126.465C1007.47 166.109 1102.04 221.611 1196.35 126.465C1290.65 31.3202 1398.08 86.8216 1440 126.465V107.976C1399.68 71.4971 1294.51 20.4265 1196.35 107.976C1098.19 195.526 1005.87 144.455 971.978 107.976C931.808 72.9962 828.767 24.0244 737.967 107.976C647.167 191.928 541.789 142.956 500.45 107.976C459.55 67.9991 351.63 12.0313 247.158 107.976Z" fill="#F01D74"/>
<path d="M247.158 107.976C142.685 203.921 38.8558 147.953 0 107.976V122.468C34.9117 162.611 133.22 218.812 247.158 122.468C361.096 26.1232 463.494 84.9893 500.45 126.465C541.643 164.777 646.817 218.412 737.967 126.465C829.117 34.5184 931.954 88.1541 971.978 126.465C1007.47 166.109 1102.04 221.611 1196.35 126.465C1290.65 31.3202 1398.08 86.8216 1440 126.465V107.976C1399.68 71.4971 1294.51 20.4265 1196.35 107.976C1098.19 195.526 1005.87 144.455 971.978 107.976C931.808 72.9962 828.767 24.0244 737.967 107.976C647.167 191.928 541.789 142.956 500.45 107.976C459.55 67.9991 351.63 12.0313 247.158 107.976Z" fill="#F01D74"/>
</g>
<g opacity="0.09">
<path d="M247.158 154.976C142.685 250.921 38.8558 194.953 0 154.976V169.468C34.9117 209.611 133.22 265.812 247.158 169.468C361.096 73.1232 463.494 131.989 500.45 173.465C541.643 211.777 646.817 265.412 737.967 173.465C829.117 81.5184 931.954 135.154 971.978 173.465C1007.47 213.109 1102.04 268.611 1196.35 173.465C1290.65 78.3202 1398.08 133.822 1440 173.465V154.976C1399.68 118.497 1294.51 67.4265 1196.35 154.976C1098.19 242.526 1005.87 191.455 971.978 154.976C931.808 119.996 828.767 71.0244 737.967 154.976C647.167 238.928 541.789 189.956 500.45 154.976C459.55 114.999 351.63 59.0313 247.158 154.976Z" fill="#F01D74"/>
<path d="M247.158 154.976C142.685 250.921 38.8558 194.953 0 154.976V169.468C34.9117 209.611 133.22 265.812 247.158 169.468C361.096 73.1232 463.494 131.989 500.45 173.465C541.643 211.777 646.817 265.412 737.967 173.465C829.117 81.5184 931.954 135.154 971.978 173.465C1007.47 213.109 1102.04 268.611 1196.35 173.465C1290.65 78.3202 1398.08 133.822 1440 173.465V154.976C1399.68 118.497 1294.51 67.4265 1196.35 154.976C1098.19 242.526 1005.87 191.455 971.978 154.976C931.808 119.996 828.767 71.0244 737.967 154.976C647.167 238.928 541.789 189.956 500.45 154.976C459.55 114.999 351.63 59.0313 247.158 154.976Z" fill="#F01D74"/>
</g>
<g opacity="0.04">
<path d="M247.158 201.976C142.685 297.921 38.8558 241.953 0 201.976V216.468C34.9117 256.611 133.22 312.812 247.158 216.468C361.096 120.123 463.494 178.989 500.45 220.465C541.643 258.777 646.817 312.412 737.967 220.465C829.117 128.518 931.954 182.154 971.978 220.465C1007.47 260.109 1102.04 315.611 1196.35 220.465C1290.65 125.32 1398.08 180.822 1440 220.465V201.976C1399.68 165.497 1294.51 114.426 1196.35 201.976C1098.19 289.526 1005.87 238.455 971.978 201.976C931.808 166.996 828.767 118.024 737.967 201.976C647.167 285.928 541.789 236.956 500.45 201.976C459.55 161.999 351.63 106.031 247.158 201.976Z" fill="#F01D74"/>
<path d="M247.158 201.976C142.685 297.921 38.8558 241.953 0 201.976V216.468C34.9117 256.611 133.22 312.812 247.158 216.468C361.096 120.123 463.494 178.989 500.45 220.465C541.643 258.777 646.817 312.412 737.967 220.465C829.117 128.518 931.954 182.154 971.978 220.465C1007.47 260.109 1102.04 315.611 1196.35 220.465C1290.65 125.32 1398.08 180.822 1440 220.465V201.976C1399.68 165.497 1294.51 114.426 1196.35 201.976C1098.19 289.526 1005.87 238.455 971.978 201.976C931.808 166.996 828.767 118.024 737.967 201.976C647.167 285.928 541.789 236.956 500.45 201.976C459.55 161.999 351.63 106.031 247.158 201.976Z" fill="#F01D74"/>
</g>
<g opacity="0.02">
<path d="M247.158 248.976C142.685 344.921 38.8558 288.953 0 248.976V263.468C34.9117 303.611 133.22 359.812 247.158 263.468C361.096 167.123 463.494 225.989 500.45 267.465C541.643 305.777 646.817 359.412 737.967 267.465C829.117 175.518 931.954 229.154 971.978 267.465C1007.47 307.109 1102.04 362.611 1196.35 267.465C1290.65 172.32 1398.08 227.822 1440 267.465V248.976C1399.68 212.497 1294.51 161.426 1196.35 248.976C1098.19 336.526 1005.87 285.455 971.978 248.976C931.808 213.996 828.767 165.024 737.967 248.976C647.167 332.928 541.789 283.956 500.45 248.976C459.55 208.999 351.63 153.031 247.158 248.976Z" fill="#F01D74"/>
<path d="M247.158 248.976C142.685 344.921 38.8558 288.953 0 248.976V263.468C34.9117 303.611 133.22 359.812 247.158 263.468C361.096 167.123 463.494 225.989 500.45 267.465C541.643 305.777 646.817 359.412 737.967 267.465C829.117 175.518 931.954 229.154 971.978 267.465C1007.47 307.109 1102.04 362.611 1196.35 267.465C1290.65 172.32 1398.08 227.822 1440 267.465V248.976C1399.68 212.497 1294.51 161.426 1196.35 248.976C1098.19 336.526 1005.87 285.455 971.978 248.976C931.808 213.996 828.767 165.024 737.967 248.976C647.167 332.928 541.789 283.956 500.45 248.976C459.55 208.999 351.63 153.031 247.158 248.976Z" fill="#F01D74"/>
</g>
</g>
<defs>
<clipPath id="clip0_2690_34184">
<rect width="1440" height="320" fill="white"/>
</clipPath>
</defs>
</svg>
