<svg width="748" height="377" viewBox="0 0 748 377" fill="none" xmlns="http://www.w3.org/2000/svg">
<path d="M636 0C636 145.943 518.559 264 374 264C229.441 264 112 145.943 112 0C112 -145.943 229.441 -264 374 -264C518.559 -264 636 -145.943 636 0Z" stroke="#EF0163" stroke-width="42"/>
<path d="M636 0C636 145.943 518.559 264 374 264C229.441 264 112 145.943 112 0C112 -145.943 229.441 -264 374 -264C518.559 -264 636 -145.943 636 0Z" stroke="#EC0162" stroke-width="42"/>
<path d="M727 0.5C727 196.969 568.825 356 374 356C179.175 356 21 196.969 21 0.5C21 -195.969 179.175 -355 374 -355C568.825 -355 727 -195.969 727 0.5Z" stroke="#EF0163" stroke-width="42"/>
<path d="M727 0.5C727 196.969 568.825 356 374 356C179.175 356 21 196.969 21 0.5C21 -195.969 179.175 -355 374 -355C568.825 -355 727 -195.969 727 0.5Z" stroke="#EA0161" stroke-width="42"/>
<circle cx="373.5" cy="1.5" r="131.5" fill="#F10163"/>
<path d="M560 1C560 104.972 476.359 189 373.5 189C270.641 189 187 104.972 187 1C187 -102.972 270.641 -187 373.5 -187C476.359 -187 560 -102.972 560 1Z" stroke="#EF0163" stroke-width="42"/>
<path d="M560 1C560 104.972 476.359 189 373.5 189C270.641 189 187 104.972 187 1C187 -102.972 270.641 -187 373.5 -187C476.359 -187 560 -102.972 560 1Z" stroke="#EF0163" stroke-width="42"/>
</svg>
