<svg width="48" height="47" viewBox="0 0 48 47" fill="none" xmlns="http://www.w3.org/2000/svg">
<path d="M45.9001 27.6125C45.7425 27.7282 45.5632 27.8124 45.3723 27.8603C45.1815 27.9082 44.9829 27.9188 44.7879 27.8915C44.5929 27.8642 44.4053 27.7996 44.2358 27.7013C44.0663 27.6031 43.9183 27.4731 43.8001 27.3188C42.896 26.1288 41.7192 25.1633 40.3644 24.5001C39.0096 23.8368 37.5147 23.4942 36.0001 23.5C35.7051 23.5 35.4167 23.4148 35.1709 23.2551C34.9251 23.0954 34.7329 22.8683 34.6182 22.6022C34.5403 22.4215 34.5002 22.2274 34.5002 22.0313C34.5002 21.8351 34.5403 21.641 34.6182 21.4603C34.7329 21.1942 34.9251 20.9671 35.1709 20.8074C35.4167 20.6477 35.7051 20.5625 36.0001 20.5625C36.8417 20.5624 37.6665 20.3312 38.3806 19.8952C39.0948 19.4592 39.6698 18.8358 40.0403 18.0958C40.4107 17.3558 40.5619 16.529 40.4765 15.7091C40.3911 14.8893 40.0725 14.1093 39.5571 13.4578C39.0417 12.8063 38.35 12.3095 37.5606 12.0236C36.7713 11.7377 35.9158 11.6744 35.0915 11.8407C34.2672 12.007 33.507 12.3963 32.8974 12.9645C32.2877 13.5326 31.853 14.2568 31.6426 15.0547C31.5933 15.2415 31.507 15.4171 31.3885 15.5712C31.2699 15.7254 31.1216 15.8552 30.9518 15.9533C30.782 16.0513 30.5942 16.1156 30.3991 16.1426C30.2039 16.1695 30.0053 16.1586 29.8145 16.1104C29.6236 16.0621 29.4444 15.9776 29.2869 15.8615C29.1295 15.7455 28.9969 15.6002 28.8968 15.434C28.7967 15.2677 28.731 15.0838 28.7034 14.8928C28.6759 14.7017 28.6871 14.5072 28.7363 14.3203C29.0284 13.2138 29.5801 12.1893 30.3477 11.3284C31.1152 10.4674 32.0774 9.79376 33.1577 9.36099C34.2379 8.92822 35.4064 8.74828 36.5702 8.83551C37.7339 8.92273 38.8608 9.2747 39.8612 9.86341C40.8616 10.4521 41.7079 11.2613 42.3327 12.2266C42.9575 13.192 43.3435 14.2867 43.4602 15.4239C43.5769 16.561 43.4209 17.7091 43.0046 18.7768C42.5884 19.8445 41.9234 20.8023 41.0626 21.5741C43.1022 22.4388 44.8753 23.811 46.2057 25.5544C46.3239 25.7091 46.4097 25.8851 46.4584 26.0723C46.507 26.2596 46.5174 26.4544 46.489 26.6455C46.4606 26.8367 46.394 27.0205 46.2929 27.1865C46.1918 27.3524 46.0584 27.4972 45.9001 27.6125ZM35.7976 38.9219C35.9061 39.089 35.979 39.276 36.0118 39.4714C36.0447 39.6669 36.0368 39.8669 35.9886 40.0593C35.9405 40.2517 35.8531 40.4325 35.7318 40.591C35.6104 40.7495 35.4575 40.8823 35.2824 40.9814C35.1072 41.0806 34.9134 41.144 34.7126 41.1679C34.5117 41.1917 34.3081 41.1756 34.1138 41.1204C33.9195 41.0652 33.7386 40.9721 33.582 40.8467C33.4254 40.7213 33.2964 40.5661 33.2026 40.3906C32.2577 38.824 30.9119 37.5256 29.2981 36.6237C27.6843 35.7217 25.8583 35.2473 24.0001 35.2473C22.1419 35.2473 20.3158 35.7217 18.702 36.6237C17.0882 37.5256 15.7425 38.824 14.7976 40.3906C14.7038 40.5661 14.5747 40.7213 14.4182 40.8467C14.2616 40.9721 14.0807 41.0652 13.8864 41.1204C13.6921 41.1756 13.4884 41.1917 13.2876 41.1679C13.0868 41.144 12.8929 41.0806 12.7178 40.9814C12.5426 40.8823 12.3898 40.7495 12.2684 40.591C12.147 40.4325 12.0597 40.2517 12.0115 40.0593C11.9634 39.8669 11.9555 39.6669 11.9883 39.4714C12.0212 39.276 12.094 39.089 12.2026 38.9219C13.6568 36.4753 15.8742 34.5499 18.5288 33.4287C17.0351 32.3089 15.9373 30.7589 15.3897 28.9965C14.8422 27.2341 14.8724 25.348 15.4762 23.6034C16.0799 21.8587 17.2269 20.3432 18.7558 19.2698C20.2848 18.1964 22.1188 17.6191 24.0001 17.6191C25.8814 17.6191 27.7154 18.1964 29.2443 19.2698C30.7732 20.3432 31.9202 21.8587 32.524 23.6034C33.1278 25.348 33.158 27.2341 32.6105 28.9965C32.0629 30.7589 30.9651 32.3089 29.4713 33.4287C32.126 34.5499 34.3433 36.4753 35.7976 38.9219ZM24.0001 32.3125C25.1868 32.3125 26.3468 31.9679 27.3335 31.3224C28.3202 30.6768 29.0892 29.7593 29.5434 28.6858C29.9975 27.6122 30.1163 26.431 29.8848 25.2913C29.6533 24.1517 29.0818 23.1049 28.2427 22.2832C27.4036 21.4616 26.3345 20.9021 25.1706 20.6754C24.0067 20.4487 22.8003 20.565 21.704 21.0097C20.6076 21.4544 19.6706 22.2074 19.0113 23.1735C18.352 24.1397 18.0001 25.2755 18.0001 26.4375C18.0001 27.9956 18.6322 29.49 19.7574 30.5918C20.8827 31.6935 22.4088 32.3125 24.0001 32.3125ZM13.5001 22.0313C13.5001 21.6417 13.342 21.2681 13.0607 20.9927C12.7794 20.7172 12.3979 20.5625 12.0001 20.5625C11.1584 20.5624 10.3337 20.3312 9.61952 19.8952C8.90534 19.4592 8.33036 18.8358 7.95989 18.0958C7.58942 17.3558 7.4383 16.529 7.5237 15.7091C7.60911 14.8893 7.92761 14.1093 8.44303 13.4578C8.95845 12.8063 9.65014 12.3095 10.4395 12.0236C11.2289 11.7377 12.0843 11.6744 12.9086 11.8407C13.733 12.007 14.4931 12.3963 15.1028 12.9645C15.7124 13.5326 16.1472 14.2568 16.3576 15.0547C16.457 15.4321 16.7055 15.7553 17.0484 15.9533C17.3912 16.1512 17.8003 16.2077 18.1857 16.1104C18.5711 16.013 18.9012 15.7697 19.1034 15.434C19.3056 15.0983 19.3633 14.6977 19.2638 14.3203C18.9718 13.2138 18.42 12.1893 17.6525 11.3284C16.8849 10.4674 15.9227 9.79376 14.8425 9.36099C13.7622 8.92822 12.5938 8.74828 11.43 8.83551C10.2662 8.92273 9.13933 9.2747 8.13894 9.86341C7.13855 10.4521 6.29229 11.2613 5.66749 12.2266C5.0427 13.192 4.65661 14.2867 4.53996 15.4239C4.42331 16.561 4.5793 17.7091 4.99554 18.7768C5.41177 19.8445 6.07676 20.8023 6.93758 21.5741C4.89999 22.4396 3.12892 23.8118 1.80008 25.5544C1.56114 25.866 1.45841 26.2579 1.51449 26.6436C1.57058 27.0294 1.78088 27.3776 2.09914 27.6116C2.4174 27.8455 2.81755 27.9461 3.21155 27.8912C3.60555 27.8363 3.96114 27.6304 4.20008 27.3188C5.10418 26.1288 6.28098 25.1633 7.63575 24.5001C8.99052 23.8368 10.4854 23.4942 12.0001 23.5C12.3979 23.5 12.7794 23.3453 13.0607 23.0698C13.342 22.7944 13.5001 22.4208 13.5001 22.0313Z" fill="#709B08"/>
</svg>
