<svg width="1440" height="275" viewBox="0 0 1440 275" fill="none" xmlns="http://www.w3.org/2000/svg">
<g clip-path="url(#clip0_1628_27125)">
<path d="M247.158 71.0239C142.685 -24.9208 38.8558 31.047 0 71.0239V56.5323C34.9117 16.3887 133.22 -39.8122 247.158 56.5323C361.096 152.877 463.494 94.0107 500.45 52.5346C541.643 14.2233 646.817 -39.4125 737.967 52.5346C829.117 144.482 931.954 90.8459 971.978 52.5346C1007.47 12.8908 1102.04 -42.6106 1196.35 52.5346C1290.65 147.68 1398.08 92.1784 1440 52.5346V71.0239C1399.68 107.503 1294.51 158.574 1196.35 71.0239C1098.19 -16.5256 1005.87 34.5449 971.978 71.0239C931.808 106.004 828.767 154.976 737.967 71.0239C647.167 -12.9277 541.789 36.0441 500.45 71.0239C459.55 111.001 351.63 166.969 247.158 71.0239Z" fill="#F01D74"/>
<path d="M247.158 71.0239C142.685 -24.9208 38.8558 31.047 0 71.0239V56.5323C34.9117 16.3887 133.22 -39.8122 247.158 56.5323C361.096 152.877 463.494 94.0107 500.45 52.5346C541.643 14.2233 646.817 -39.4125 737.967 52.5346C829.117 144.482 931.954 90.8459 971.978 52.5346C1007.47 12.8908 1102.04 -42.6106 1196.35 52.5346C1290.65 147.68 1398.08 92.1784 1440 52.5346V71.0239C1399.68 107.503 1294.51 158.574 1196.35 71.0239C1098.19 -16.5256 1005.87 34.5449 971.978 71.0239C931.808 106.004 828.767 154.976 737.967 71.0239C647.167 -12.9277 541.789 36.0441 500.45 71.0239C459.55 111.001 351.63 166.969 247.158 71.0239Z" fill="#F01D74"/>
<path d="M247.158 118.024C142.685 22.0792 38.8558 78.047 0 118.024V103.532C34.9117 63.3887 133.22 7.18777 247.158 103.532C361.096 199.877 463.494 141.011 500.45 99.5346C541.643 61.2233 646.817 7.58755 737.967 99.5346C829.117 191.482 931.954 137.846 971.978 99.5346C1007.47 59.8908 1102.04 4.38939 1196.35 99.5346C1290.65 194.68 1398.08 139.178 1440 99.5346V118.024C1399.68 154.503 1294.51 205.574 1196.35 118.024C1098.19 30.4744 1005.87 81.5449 971.978 118.024C931.808 153.004 828.767 201.976 737.967 118.024C647.167 34.0723 541.789 83.0441 500.45 118.024C459.55 158.001 351.63 213.969 247.158 118.024Z" fill="#F01D74"/>
<path d="M247.158 118.024C142.685 22.0792 38.8558 78.047 0 118.024V103.532C34.9117 63.3887 133.22 7.18777 247.158 103.532C361.096 199.877 463.494 141.011 500.45 99.5346C541.643 61.2233 646.817 7.58755 737.967 99.5346C829.117 191.482 931.954 137.846 971.978 99.5346C1007.47 59.8908 1102.04 4.38939 1196.35 99.5346C1290.65 194.68 1398.08 139.178 1440 99.5346V118.024C1399.68 154.503 1294.51 205.574 1196.35 118.024C1098.19 30.4744 1005.87 81.5449 971.978 118.024C931.808 153.004 828.767 201.976 737.967 118.024C647.167 34.0723 541.789 83.0441 500.45 118.024C459.55 158.001 351.63 213.969 247.158 118.024Z" fill="#F01D74"/>
<path d="M247.158 165.024C142.685 69.0792 38.8558 125.047 0 165.024V150.532C34.9117 110.389 133.22 54.1878 247.158 150.532C361.096 246.877 463.494 188.011 500.45 146.535C541.643 108.223 646.817 54.5875 737.967 146.535C829.117 238.482 931.954 184.846 971.978 146.535C1007.47 106.891 1102.04 51.3894 1196.35 146.535C1290.65 241.68 1398.08 186.178 1440 146.535V165.024C1399.68 201.503 1294.51 252.574 1196.35 165.024C1098.19 77.4744 1005.87 128.545 971.978 165.024C931.808 200.004 828.767 248.976 737.967 165.024C647.167 81.0723 541.789 130.044 500.45 165.024C459.55 205.001 351.63 260.969 247.158 165.024Z" fill="#F01D74"/>
<path d="M247.158 165.024C142.685 69.0792 38.8558 125.047 0 165.024V150.532C34.9117 110.389 133.22 54.1878 247.158 150.532C361.096 246.877 463.494 188.011 500.45 146.535C541.643 108.223 646.817 54.5875 737.967 146.535C829.117 238.482 931.954 184.846 971.978 146.535C1007.47 106.891 1102.04 51.3894 1196.35 146.535C1290.65 241.68 1398.08 186.178 1440 146.535V165.024C1399.68 201.503 1294.51 252.574 1196.35 165.024C1098.19 77.4744 1005.87 128.545 971.978 165.024C931.808 200.004 828.767 248.976 737.967 165.024C647.167 81.0723 541.789 130.044 500.45 165.024C459.55 205.001 351.63 260.969 247.158 165.024Z" fill="#F01D74"/>
<path d="M247.158 212.024C142.685 116.079 38.8558 172.047 0 212.024V197.532C34.9117 157.389 133.22 101.188 247.158 197.532C361.096 293.877 463.494 235.011 500.45 193.535C541.643 155.223 646.817 101.588 737.967 193.535C829.117 285.482 931.954 231.846 971.978 193.535C1007.47 153.891 1102.04 98.3894 1196.35 193.535C1290.65 288.68 1398.08 233.178 1440 193.535V212.024C1399.68 248.503 1294.51 299.574 1196.35 212.024C1098.19 124.474 1005.87 175.545 971.978 212.024C931.808 247.004 828.767 295.976 737.967 212.024C647.167 128.072 541.789 177.044 500.45 212.024C459.55 252.001 351.63 307.969 247.158 212.024Z" fill="#F01D74"/>
<path d="M247.158 212.024C142.685 116.079 38.8558 172.047 0 212.024V197.532C34.9117 157.389 133.22 101.188 247.158 197.532C361.096 293.877 463.494 235.011 500.45 193.535C541.643 155.223 646.817 101.588 737.967 193.535C829.117 285.482 931.954 231.846 971.978 193.535C1007.47 153.891 1102.04 98.3894 1196.35 193.535C1290.65 288.68 1398.08 233.178 1440 193.535V212.024C1399.68 248.503 1294.51 299.574 1196.35 212.024C1098.19 124.474 1005.87 175.545 971.978 212.024C931.808 247.004 828.767 295.976 737.967 212.024C647.167 128.072 541.789 177.044 500.45 212.024C459.55 252.001 351.63 307.969 247.158 212.024Z" fill="#F01D74"/>
<path d="M247.158 259.024C142.685 163.079 38.8558 219.047 0 259.024V244.532C34.9117 204.389 133.22 148.188 247.158 244.532C361.096 340.877 463.494 282.011 500.45 240.535C541.643 202.223 646.817 148.588 737.967 240.535C829.117 332.482 931.954 278.846 971.978 240.535C1007.47 200.891 1102.04 145.389 1196.35 240.535C1290.65 335.68 1398.08 280.178 1440 240.535V259.024C1399.68 295.503 1294.51 346.574 1196.35 259.024C1098.19 171.474 1005.87 222.545 971.978 259.024C931.808 294.004 828.767 342.976 737.967 259.024C647.167 175.072 541.789 224.044 500.45 259.024C459.55 299.001 351.63 354.969 247.158 259.024Z" fill="#F01D74"/>
<path d="M247.158 259.024C142.685 163.079 38.8558 219.047 0 259.024V244.532C34.9117 204.389 133.22 148.188 247.158 244.532C361.096 340.877 463.494 282.011 500.45 240.535C541.643 202.223 646.817 148.588 737.967 240.535C829.117 332.482 931.954 278.846 971.978 240.535C1007.47 200.891 1102.04 145.389 1196.35 240.535C1290.65 335.68 1398.08 280.178 1440 240.535V259.024C1399.68 295.503 1294.51 346.574 1196.35 259.024C1098.19 171.474 1005.87 222.545 971.978 259.024C931.808 294.004 828.767 342.976 737.967 259.024C647.167 175.072 541.789 224.044 500.45 259.024C459.55 299.001 351.63 354.969 247.158 259.024Z" fill="#F01D74"/>
<path d="M247.158 306.024C142.685 210.079 38.8558 266.047 0 306.024V291.532C34.9117 251.389 133.22 195.188 247.158 291.532C361.096 387.877 463.494 329.011 500.45 287.535C541.643 249.223 646.817 195.588 737.967 287.535C829.117 379.482 931.954 325.846 971.978 287.535C1007.47 247.891 1102.04 192.389 1196.35 287.535C1290.65 382.68 1398.08 327.178 1440 287.535V306.024C1399.68 342.503 1294.51 393.574 1196.35 306.024C1098.19 218.474 1005.87 269.545 971.978 306.024C931.808 341.004 828.767 389.976 737.967 306.024C647.167 222.072 541.789 271.044 500.45 306.024C459.55 346.001 351.63 401.969 247.158 306.024Z" fill="#F01D74"/>
<path d="M247.158 306.024C142.685 210.079 38.8558 266.047 0 306.024V291.532C34.9117 251.389 133.22 195.188 247.158 291.532C361.096 387.877 463.494 329.011 500.45 287.535C541.643 249.223 646.817 195.588 737.967 287.535C829.117 379.482 931.954 325.846 971.978 287.535C1007.47 247.891 1102.04 192.389 1196.35 287.535C1290.65 382.68 1398.08 327.178 1440 287.535V306.024C1399.68 342.503 1294.51 393.574 1196.35 306.024C1098.19 218.474 1005.87 269.545 971.978 306.024C931.808 341.004 828.767 389.976 737.967 306.024C647.167 222.072 541.789 271.044 500.45 306.024C459.55 346.001 351.63 401.969 247.158 306.024Z" fill="#F01D74"/>
</g>
<defs>
<clipPath id="clip0_1628_27125">
<rect width="1440" height="275" fill="white"/>
</clipPath>
</defs>
</svg>
